<svg id="Layer_1" data-name="Layer 1" xmlns="http://www.w3.org/2000/svg" xmlns:xlink="http://www.w3.org/1999/xlink" viewBox="0 0 200 200"><defs><style>.cls-1{fill:#12120d;}.cls-1,.cls-2,.cls-3,.cls-4,.cls-5,.cls-6{fill-rule:evenodd;}.cls-2{fill:#ffd500;}.cls-3{fill:#008f4a;}.cls-4{fill:#e42b2b;}.cls-5{fill:#ffe800;}.cls-6{fill:#fff;}</style><symbol id="Eichel_Small" data-name="Eichel Small" viewBox="0 0 8.45 15.47"><path class="cls-1" d="M6.54,15.1h0l.15.22-.26.08a2.12,2.12,0,0,1-1,0,2.06,2.06,0,0,1-.7-.28h0a2.45,2.45,0,0,1-1-1.14,3.18,3.18,0,0,1-.27-1.48,5.69,5.69,0,0,1-1.7-.4A2.87,2.87,0,0,1,.3,10.87,2.61,2.61,0,0,1,0,9.8a2.13,2.13,0,0,1,.2-1A1.59,1.59,0,0,1,.9,8a1.74,1.74,0,0,1,.62-.2V2.68A2.53,2.53,0,0,1,3.13.21,2.9,2.9,0,0,1,4.22,0a3,3,0,0,1,1.1.21,2.53,2.53,0,0,1,1.6,2.47V7.84a1.68,1.68,0,0,1,.62.2,1.61,1.61,0,0,1,.71.75,2,2,0,0,1,.19,1,2.34,2.34,0,0,1-.3,1.07,2.81,2.81,0,0,1-1.48,1.22,5.94,5.94,0,0,1-1.74.4,2.56,2.56,0,0,0,.08.77,1.42,1.42,0,0,0,.33.59,1.11,1.11,0,0,1,.39.26,5.88,5.88,0,0,1,.82,1Z"/><path class="cls-2" d="M6,15.07a5.06,5.06,0,0,0-.59-.67.51.51,0,0,0-.5-.19h0a.23.23,0,0,0-.1.07h0a.33.33,0,0,0-.06.1h0a.3.3,0,0,0,.09.32h0l.09.08H5a2,2,0,0,0,.55.22,2.92,2.92,0,0,0,.5.05Z"/><path class="cls-3" d="M4.39,14.27v0h0A.76.76,0,0,1,4.55,14h0a.63.63,0,0,1,.26-.16,2.25,2.25,0,0,1-.19-.45,2.91,2.91,0,0,1-.1-.87H3.88a2.93,2.93,0,0,0,.24,1.3,2.4,2.4,0,0,0,.27.46Z"/><path class="cls-3" d="M2.73,11.49a2.35,2.35,0,0,1-.52-2.26c.2-.7-.63-.87-.83-.15a2,2,0,0,0,1.35,2.41Zm1.34.63V10.91A5.61,5.61,0,0,1,3.68,9.4a.72.72,0,0,1,.39-.76V8.22H1.74a1.45,1.45,0,0,0-.65.17A1.22,1.22,0,0,0,.56,9a1.72,1.72,0,0,0-.16.82,2.07,2.07,0,0,0,.26.9,2.44,2.44,0,0,0,1.28,1.05,6.05,6.05,0,0,0,2.13.39Z"/><path class="cls-3" d="M7.76,10.75v-2a1.72,1.72,0,0,1,.29,1,2.07,2.07,0,0,1-.26.9l0,.07Zm-.68.68V10a1.83,1.83,0,0,0,0-.9V8.28a1.09,1.09,0,0,1,.27.11l.11.06v2.68a2.79,2.79,0,0,1-.38.3ZM6.4,8.66V8.22h.38v.45a.4.4,0,0,0-.38,0Zm0,3.11v-.64a1.9,1.9,0,0,0,.38-.42v.89l-.27.13-.11,0Zm-.67-.29V8.22H6.1V11a1.64,1.64,0,0,1-.37.52Zm0,.49v-.48a1.31,1.31,0,0,0,.37-.15v.53l-.37.1Zm-.68.11V8.22h.38V12l-.38.05Zm-.68-1v1.07l.38,0V9.88a8.05,8.05,0,0,1-.38,1.17Zm0-2.83v.41A.55.55,0,0,1,4.75,9V8.22Z"/><path class="cls-4" d="M6.4,6.76V1.88a2.53,2.53,0,0,1,.12.8V6.76Zm-.67,0V.9a2,2,0,0,1,.37.39V6.76Zm-.68,0V.53l.12,0c.09,0,.17.08.26.12V6.76ZM4.37.4V6.76h.38V.45L4.37.4Z"/><path class="cls-5" d="M4.07,6.76V.4a2.67,2.67,0,0,0-.79.18,2.14,2.14,0,0,0-1.36,2.1V6.76Z"/><polygon class="cls-6" points="4.07 7.16 1.92 7.16 1.92 7.82 4.07 7.82 4.07 7.16 4.07 7.16"/><path class="cls-6" d="M4.75,7.16H4.37v.66h.38V7.16Zm.68,0H5.05v.66h.38V7.16Zm.67,0H5.73v.66H6.1V7.16Zm.42.66V7.16H6.4v.66Z"/></symbol></defs><title>Eichel</title><use width="8.45" height="15.47" transform="translate(60.76 28.14) scale(9.29)" xlink:href="#Eichel_Small"/></svg>